<svg width="32" height="24" viewBox="0 0 32 24" fill="none" xmlns="http://www.w3.org/2000/svg">
<path fill-rule="evenodd" clip-rule="evenodd" d="M15.75 5.25C15.75 4.25544 15.3549 3.30161 14.6517 2.59835C13.9484 1.89509 12.9946 1.5 12 1.5C11.0054 1.5 10.0516 1.89509 9.34835 2.59835C8.64509 3.30161 8.25 4.25544 8.25 5.25V6H15.75V5.25ZM17.25 5.25V6H22.5V21C22.5 21.7956 22.1839 22.5587 21.6213 23.1213C21.0587 23.6839 20.2956 24 19.5 24H4.5C3.70435 24 2.94129 23.6839 2.37868 23.1213C1.81607 22.5587 1.5 21.7956 1.5 21V6H6.75V5.25C6.75 3.85761 7.30312 2.52226 8.28769 1.53769C9.27226 0.553123 10.6076 0 12 0C13.3924 0 14.7277 0.553123 15.7123 1.53769C16.6969 2.52226 17.25 3.85761 17.25 5.25ZM16.281 13.281C16.4218 13.1402 16.5009 12.9492 16.5009 12.75C16.5009 12.5508 16.4218 12.3598 16.281 12.219C16.1402 12.0782 15.9492 11.9991 15.75 11.9991C15.5508 11.9991 15.3598 12.0782 15.219 12.219L11.25 16.1895L9.531 14.469C9.46127 14.3993 9.37848 14.344 9.28738 14.3062C9.19627 14.2685 9.09862 14.2491 9 14.2491C8.90138 14.2491 8.80373 14.2685 8.71262 14.3062C8.62152 14.344 8.53873 14.3993 8.469 14.469C8.39927 14.5387 8.34395 14.6215 8.30621 14.7126C8.26848 14.8037 8.24905 14.9014 8.24905 15C8.24905 15.0986 8.26848 15.1963 8.30621 15.2874C8.34395 15.3785 8.39927 15.4613 8.469 15.531L10.719 17.781C10.7887 17.8508 10.8714 17.9063 10.9625 17.9441C11.0537 17.9819 11.1513 18.0013 11.25 18.0013C11.3487 18.0013 11.4463 17.9819 11.5375 17.9441C11.6286 17.9063 11.7113 17.8508 11.781 17.781L16.281 13.281Z" fill="#252525"/>
<rect x="16" width="16" height="16" rx="8" fill="#E80000"/>
<path d="M26.8281 6.98438V8.46094C26.8281 9.10156 26.7598 9.6543 26.623 10.1191C26.4863 10.5801 26.2891 10.959 26.0312 11.2559C25.7773 11.5488 25.4746 11.7656 25.123 11.9062C24.7715 12.0469 24.3809 12.1172 23.9512 12.1172C23.6074 12.1172 23.2871 12.0742 22.9902 11.9883C22.6934 11.8984 22.4258 11.7598 22.1875 11.5723C21.9531 11.3848 21.75 11.1484 21.5781 10.8633C21.4102 10.5742 21.2812 10.2305 21.1914 9.83203C21.1016 9.43359 21.0566 8.97656 21.0566 8.46094V6.98438C21.0566 6.34375 21.125 5.79492 21.2617 5.33789C21.4023 4.87695 21.5996 4.5 21.8535 4.20703C22.1113 3.91406 22.416 3.69922 22.7676 3.5625C23.1191 3.42188 23.5098 3.35156 23.9395 3.35156C24.2832 3.35156 24.6016 3.39648 24.8945 3.48633C25.1914 3.57227 25.459 3.70703 25.6973 3.89062C25.9355 4.07422 26.1387 4.31055 26.3066 4.59961C26.4746 4.88477 26.6035 5.22656 26.6934 5.625C26.7832 6.01953 26.8281 6.47266 26.8281 6.98438ZM25.1348 8.68359V6.75586C25.1348 6.44727 25.1172 6.17773 25.082 5.94727C25.0508 5.7168 25.002 5.52148 24.9355 5.36133C24.8691 5.19727 24.7871 5.06445 24.6895 4.96289C24.5918 4.86133 24.4805 4.78711 24.3555 4.74023C24.2305 4.69336 24.0918 4.66992 23.9395 4.66992C23.748 4.66992 23.5781 4.70703 23.4297 4.78125C23.2852 4.85547 23.1621 4.97461 23.0605 5.13867C22.959 5.29883 22.8809 5.51367 22.8262 5.7832C22.7754 6.04883 22.75 6.37305 22.75 6.75586V8.68359C22.75 8.99219 22.7656 9.26367 22.7969 9.49805C22.832 9.73242 22.8828 9.93359 22.9492 10.1016C23.0195 10.2656 23.1016 10.4004 23.1953 10.5059C23.293 10.6074 23.4043 10.6816 23.5293 10.7285C23.6582 10.7754 23.7988 10.7988 23.9512 10.7988C24.1387 10.7988 24.3047 10.7617 24.4492 10.6875C24.5977 10.6094 24.7227 10.4883 24.8242 10.3242C24.9297 10.1562 25.0078 9.9375 25.0586 9.66797C25.1094 9.39844 25.1348 9.07031 25.1348 8.68359Z" fill="white"/>
</svg>
