<svg width="62" height="62" viewBox="0 0 62 62" fill="none" xmlns="http://www.w3.org/2000/svg">
<rect width="62" height="62" rx="31" transform="matrix(-1 0 0 1 62 0)" fill="white"/>
<g clip-path="url(#clip0_20_563)">
<path d="M25.0371 23.0235C26.6949 23.3306 28.8126 23.5 31 23.5C33.1874 23.5 35.3051 23.3306 36.9629 23.0235C39.259 22.5977 40.375 21.9871 40.375 21.1562C40.375 19.3062 34.482 18.8125 31 18.8125C27.518 18.8125 21.625 19.3062 21.625 21.1562C21.625 21.9871 22.741 22.5977 25.0371 23.0235ZM31 19.75C36.1959 19.75 39.2416 20.6682 39.4336 21.1504C39.3887 21.2219 39.0147 21.6895 36.7921 22.1014C35.1887 22.3988 33.1318 22.5625 31 22.5625C28.8682 22.5625 26.8112 22.3988 25.2079 22.1015C22.9793 21.6883 22.6086 21.2186 22.5669 21.1618C22.7741 20.6637 25.8167 19.75 31 19.75Z" fill="#BB2323"/>
<path d="M45.0625 23.5C45.0625 23.3757 45.0131 23.2565 44.9252 23.1685C44.8373 23.0806 44.7181 23.0312 44.5938 23.0312H43.1875V21.1562C43.1875 18.4161 36.9081 16.9375 31 16.9375C25.0919 16.9375 18.8125 18.4161 18.8125 21.1562V23.0312H17.4062C17.2819 23.0312 17.1627 23.0806 17.0748 23.1685C16.9869 23.2565 16.9375 23.3757 16.9375 23.5V25.8438C16.9386 28.3029 17.5851 30.7187 18.8125 32.8497V40.8438C18.8125 43.5839 25.0919 45.0625 31 45.0625C36.9081 45.0625 43.1875 43.5839 43.1875 40.8438V32.8497C44.4149 30.7187 45.0614 28.3029 45.0625 25.8438V23.5ZM26.7812 38.5H35.2188V39.4375H26.7812V38.5ZM36.1328 37.9141C36.1082 37.8143 36.0511 37.7256 35.9704 37.6619C35.8898 37.5983 35.7902 37.5633 35.6875 37.5625H26.3125C26.2098 37.5633 26.1102 37.5983 26.0296 37.6619C25.9489 37.7256 25.8918 37.8143 25.8672 37.9141C23.3197 36.8271 21.1793 34.9653 19.75 32.5929V22.8423C20.2098 23.2294 20.8379 23.5857 21.625 23.9054V32.4062C21.625 33.1522 21.9213 33.8675 22.4488 34.395C22.9762 34.9224 23.6916 35.2188 24.4375 35.2188C25.1834 35.2188 25.8988 34.9224 26.4262 34.395C26.9537 33.8675 27.25 33.1522 27.25 32.4062V29.5938C27.25 29.2208 27.3982 28.8631 27.6619 28.5994C27.9256 28.3357 28.2833 28.1875 28.6562 28.1875C29.0292 28.1875 29.3869 28.3357 29.6506 28.5994C29.9143 28.8631 30.0625 29.2208 30.0625 29.5938V30.5312C30.0625 31.2772 30.3588 31.9925 30.8863 32.52C31.4137 33.0474 32.1291 33.3438 32.875 33.3438C33.6209 33.3438 34.3363 33.0474 34.8637 32.52C35.3912 31.9925 35.6875 31.2772 35.6875 30.5312V29.5938C35.6879 29.2209 35.8362 28.8635 36.0998 28.5998C36.3635 28.3362 36.7209 28.1879 37.0938 28.1875C37.7151 28.1868 38.3108 27.9396 38.7502 27.5002C39.1896 27.0608 39.4368 26.4651 39.4375 25.8438V24.2491C40.6771 23.8523 41.6199 23.3839 42.25 22.8573V32.5929C40.8207 34.9653 38.6803 36.8271 36.1328 37.9141ZM31 25.375C33.7453 25.375 36.3754 25.0703 38.5 24.517V25.8438C38.4996 26.2166 38.3513 26.574 38.0877 26.8377C37.824 27.1013 37.4666 27.2496 37.0938 27.25C36.4724 27.2507 35.8767 27.4979 35.4373 27.9373C34.9979 28.3767 34.7507 28.9724 34.75 29.5938V30.5312C34.75 31.0285 34.5525 31.5054 34.2008 31.8571C33.8492 32.2087 33.3723 32.4062 32.875 32.4062C32.3777 32.4062 31.9008 32.2087 31.5492 31.8571C31.1975 31.5054 31 31.0285 31 30.5312V29.5938C31 28.9721 30.7531 28.376 30.3135 27.9365C29.874 27.4969 29.2779 27.25 28.6562 27.25C28.0346 27.25 27.4385 27.4969 26.999 27.9365C26.5594 28.376 26.3125 28.9721 26.3125 29.5938V32.4062C26.3125 32.9035 26.115 33.3804 25.7633 33.7321C25.4117 34.0837 24.9348 34.2812 24.4375 34.2812C23.9402 34.2812 23.4633 34.0837 23.1117 33.7321C22.76 33.3804 22.5625 32.9035 22.5625 32.4062V24.2436C24.8031 24.9637 27.8237 25.375 31 25.375ZM31 17.875C37.6298 17.875 42.25 19.6042 42.25 21.1562C42.25 21.9486 40.9415 22.8298 38.8353 23.4556C36.7028 24.0887 33.9203 24.4375 31 24.4375C27.6263 24.4375 24.44 23.9692 22.2581 23.153C20.6875 22.5657 19.75 21.8191 19.75 21.1562C19.75 19.6042 24.3702 17.875 31 17.875ZM17.875 23.9688H18.8125V30.6987C18.1951 29.1544 17.877 27.5068 17.875 25.8438V23.9688ZM31 44.125C24.3702 44.125 19.75 42.3958 19.75 40.8438V34.2596C21.3117 36.346 23.421 37.9588 25.8438 38.9189V39.9062C25.8438 40.0306 25.8931 40.1498 25.981 40.2377C26.069 40.3256 26.1882 40.375 26.3125 40.375H35.6875C35.8118 40.375 35.931 40.3256 36.019 40.2377C36.1069 40.1498 36.1562 40.0306 36.1562 39.9062V38.9189C38.579 37.9588 40.6883 36.346 42.25 34.2596V40.8438C42.25 42.3958 37.6298 44.125 31 44.125ZM44.125 25.8438C44.123 27.5069 43.8049 29.1544 43.1875 30.6987V23.9688H44.125V25.8438Z" fill="#BB2323"/>
</g>
<defs>
<clipPath id="clip0_20_563">
<rect width="30" height="30" fill="white" transform="translate(16 16)"/>
</clipPath>
</defs>
</svg>
