<svg width="62" height="62" viewBox="0 0 62 62" fill="none" xmlns="http://www.w3.org/2000/svg">
<rect width="62" height="62" rx="31" transform="matrix(-1 0 0 1 62 0)" fill="white"/>
<path d="M41.028 37.891C41.255 37.175 41.46 36.2 41.46 34.945C41.46 34.019 41.262 31.372 41.201 30.582C41.727 29.997 42 29.311 42 28.517V24.324C42 22.76 40.033 22.137 39.675 22.036C39.441 21.937 38.813 21.787 36.922 21.642C35.645 21.161 35.649 21.146 35.108 20.725C32.499 18.695 30.611 18.14 27.576 20.768C26.683 21.29 25.874 20.773 24.959 21.674L21.79 22.546C21.716 22.58 20 23.398 20 25.324V28.516C20 29.092 20.143 29.612 20.42 30.078C20.571 31.89 20 34.204 20 35.519C20 36.002 20.287 36.493 20.69 36.948C20.337 38.037 19 39.748 19 40.898C19 41.877 19.236 43.001 21.073 43.001C22.382 43.001 23.765 42.517 24.511 42.517C25.077 42.517 29.279 43.001 30.66 43.001C33.656 43.001 36.764 42.54 37.051 42.497C38.136 42.397 38.798 42.999 39.829 42.999C42.451 42.999 43.001 42.039 43.001 41.234C43 40.178 41.652 38.802 41.028 37.891ZM40.775 26.659C40.863 26.627 40.935 26.566 40.992 26.492C40.994 26.49 40.997 26.488 41 26.486V28.517C41 29.658 40.11 30.434 38.801 30.957C39.139 29.772 39.15 28.517 38.287 27.63C39.283 27.433 40.134 27.124 40.775 26.659ZM40.885 24.999C40.571 24.427 40.012 24.119 39.654 24.024C39.349 23.926 38.913 23.194 38.667 22.83C40.069 23.04 41.37 23.662 40.885 24.999ZM21 25.324C21 24.052 22.151 23.482 22.132 23.482L23.941 22.988C23.74 23.246 23.525 23.477 23.25 23.635C22.677 23.965 23.176 24.831 23.75 24.501C24.848 23.869 25.216 22.619 25.896 22.189C26.163 22.02 27.253 22.114 28.081 21.632C28.379 21.457 29.703 20 31.491 20C32.548 20 33.766 20.948 34.494 21.515C35.018 21.923 35.122 22.036 36.414 22.519C36.854 22.684 37.457 22.909 37.596 23.061C38.026 23.53 38.49 24.699 39.367 24.982C39.498 25.02 40.096 25.237 40.111 25.928C37.966 27.364 26.602 27.502 22.731 25.758C22.127 25.488 21.717 26.399 22.321 26.67C25.63 28.159 33.589 28.159 36.762 27.851C38.534 28.207 38.04 30.88 37.493 31.37C35.443 31.881 32.897 32 31.001 32C27.266 32 21.001 31.547 21.001 28.518L21 25.324ZM39.828 41.999C39.066 41.999 38.236 41.38 36.953 41.501C36.948 41.502 36.943 41.505 36.938 41.506C36.933 41.507 36.929 41.505 36.924 41.505C36.892 41.51 33.661 42.001 30.66 42.001C29.171 42.001 25.376 41.517 24.511 41.517C23.723 41.517 22.169 42.001 21.073 42.001C20.148 42.001 20 41.739 20 40.898C20 40.236 20.994 38.762 21.473 37.688C22.206 38.287 22.991 38.742 23.258 38.89C23.835 39.206 24.325 38.338 23.742 38.015C22.636 37.402 21 36.185 21 35.519C21 34.673 21.371 32.742 21.433 31.147C23.127 32.376 26.32 33 31 33C35.409 33 38.496 32.446 40.256 31.354C40.337 32.458 40.46 34.25 40.46 34.946C40.46 37.402 39.597 38.704 39.589 38.715C39.208 39.267 40.037 39.82 40.411 39.285C40.422 39.27 40.491 39.166 40.589 38.98C40.939 39.428 42 40.712 42 41.234C42 41.944 40.338 41.999 39.828 41.999Z" fill="#BB2323"/>
<path d="M29.5 23C29.7761 23 30 22.7761 30 22.5C30 22.2239 29.7761 22 29.5 22C29.2239 22 29 22.2239 29 22.5C29 22.7761 29.2239 23 29.5 23Z" fill="#BB2323"/>
<path d="M29.5 26C29.7761 26 30 25.7761 30 25.5C30 25.2239 29.7761 25 29.5 25C29.2239 25 29 25.2239 29 25.5C29 25.7761 29.2239 26 29.5 26Z" fill="#BB2323"/>
<path d="M31.5 25C31.7761 25 32 24.7761 32 24.5C32 24.2239 31.7761 24 31.5 24C31.2239 24 31 24.2239 31 24.5C31 24.7761 31.2239 25 31.5 25Z" fill="#BB2323"/>
<path d="M26.5 24C26.7761 24 27 23.7761 27 23.5C27 23.2239 26.7761 23 26.5 23C26.2239 23 26 23.2239 26 23.5C26 23.7761 26.2239 24 26.5 24Z" fill="#BB2323"/>
<path d="M26.5 26C26.7761 26 27 25.7761 27 25.5C27 25.2239 26.7761 25 26.5 25C26.2239 25 26 25.2239 26 25.5C26 25.7761 26.2239 26 26.5 26Z" fill="#BB2323"/>
</svg>
